PathFileType	4	(X/Y/Z)	C:/Users/opensim2020/Desktop/walking_exp_matlab/subject03_walking06_straight_03.trc	
DataRate	CameraRate	NumFrames	NumMarkers	Units	OrigDataRate	OrigDataStartFrame	OrigNumFrames	
100.00	100.00	4	44	mm	100.00	2065	280	
Frame#	Time	LFHD			RFHD			LBHD			RBHD			C7			T10			CLAV			STRN			RBAK			LSHO			LUPA			LELB			LFRM			LWRA			LWRB			LFIN			RSHO			RUPA			RELB			RFRM			RWRA			RWRB			RFIN			LASI			RASI			LPSI			RPSI			LTHI			LKNE			LTIB			LANK			LHEE			LTOE			RTHI			RKNE			RTIB			RANK			RHEE			RTOE			*39			*40			*41			*42			*43			
		X1	Y1	Z1	X2	Y2	Z2	X3	Y3	Z3	X4	Y4	Z4	X5	Y5	Z5	X6	Y6	Z6	X7	Y7	Z7	X8	Y8	Z8	X9	Y9	Z9	X10	Y10	Z10	X11	Y11	Z11	X12	Y12	Z12	X13	Y13	Z13	X14	Y14	Z14	X15	Y15	Z15	X16	Y16	Z16	X17	Y17	Z17	X18	Y18	Z18	X19	Y19	Z19	X20	Y20	Z20	X21	Y21	Z21	X22	Y22	Z22	X23	Y23	Z23	X24	Y24	Z24	X25	Y25	Z25	X26	Y26	Z26	X27	Y27	Z27	X28	Y28	Z28	X29	Y29	Z29	X30	Y30	Z30	X31	Y31	Z31	X32	Y32	Z32	X33	Y33	Z33	X34	Y34	Z34	X35	Y35	Z35	X36	Y36	Z36	X37	Y37	Z37	X38	Y38	Z38	X39	Y39	Z39	X40	Y40	Z40	X41	Y41	Z41	X42	Y42	Z42	X43	Y43	Z43	X44	Y44	Z44	

71	0.700	1385.64465	-557.18091	1622.98767	1518.83997	-562.73712	1620.79297	1383.02100	-681.26758	1568.31384	1514.37305	-681.91656	1566.33496	1432.00476	-706.20392	1416.35217	1428.27344	-749.82928	1104.40088	1436.84656	-586.77325	1335.29199	1427.66687	-548.07660	1169.90320	1521.84998	-767.93713	1241.22156	1281.48206	-623.08252	1378.40540	1208.75708	-613.95532	1186.34314	1195.83044	-586.80164	1066.95886	1200.68884	-520.38116	956.09741	1236.94604	-458.67529	857.53931	1187.60864	-483.31378	848.60284	1199.63696	-431.56433	784.40143	1594.83533	-638.88605	1357.97119	1661.56384	-654.64697	1134.13391	1672.37500	-646.53723	1021.10645	1672.17297	-640.21985	883.98102	1635.80896	-616.03815	787.05005	1679.12085	-649.16357	783.72034	1666.97559	-632.11188	710.79077	1309.79932	-589.23560	932.02368	1547.18201	-579.37634	945.02454	1367.00623	-747.91296	958.14136	1514.21838	-742.09180	971.87653	1262.80945	-680.70032	635.45636	1282.17383	-708.25714	457.17938	1286.95532	-856.63135	318.68063	1330.24292	-988.19177	156.57550	1370.56812	-1036.47632	155.74419	1358.88562	-900.80457	33.46341	1592.62708	-591.53284	651.89911	1553.36829	-540.45886	479.22211	1557.87488	-549.52753	288.64270	1509.94507	-528.34460	73.62049	1457.82581	-569.23480	40.94360	1492.60181	-384.36316	39.34916	1436.31311	-645.91675	1675.15564												 
72	0.710	1386.86182	-547.28992	1624.41248	1520.04663	-552.83044	1621.96143	1384.17969	-671.60431	1570.46777	1515.38672	-672.19995	1568.19775	1433.67334	-696.98431	1417.61121	1429.70398	-739.43744	1105.68054	1437.95178	-576.87244	1337.05212	1428.70654	-537.66650	1171.74744	1523.98059	-757.16046	1242.72595	1282.94421	-613.81549	1380.49487	1210.60144	-605.29163	1188.27112	1197.83472	-580.00220	1068.28284	1201.87695	-515.93732	955.91901	1237.41846	-456.26917	855.38647	1188.29492	-481.60748	847.45978	1199.83337	-432.01602	781.20575	1595.93677	-628.25079	1359.95142	1662.98633	-642.44666	1136.13708	1673.57373	-634.00317	1023.19617	1673.90027	-627.27228	886.22101	1637.63232	-603.52148	789.02478	1681.48962	-635.89111	785.88733	1669.16211	-619.74744	712.62067	1311.60620	-578.49316	933.54163	1548.88635	-569.19250	946.80566	1368.08020	-737.34955	960.01147	1515.32971	-731.52771	973.74219	1262.52161	-666.00031	635.41125	1281.10327	-689.94128	456.62460	1286.56152	-840.63196	320.93359	1329.91626	-975.59650	162.55493	1370.67029	-1023.52661	165.21049	1358.40015	-898.10681	34.15171	1593.92358	-584.81970	652.66797	1554.92627	-535.92639	479.30276	1558.84424	-546.78552	288.85205	1510.02319	-528.35352	73.60745	1457.92542	-569.17914	40.93976	1492.62048	-384.29184	39.19965	1437.80493	-635.59601	1677.07153												 
73	0.720	1387.95386	-537.53717	1625.53918	1521.20032	-542.96008	1622.92090	1385.32397	-662.05371	1572.34521	1516.56934	-662.70898	1569.84058	1435.22449	-687.71899	1418.54846	1431.25781	-729.19275	1106.73169	1438.90295	-567.15222	1338.44373	1429.65649	-527.44952	1173.31262	1526.01550	-746.07568	1243.89978	1284.38928	-604.86017	1382.16504	1212.24695	-596.62762	1189.86304	1199.76721	-573.28601	1069.51965	1202.91638	-511.63623	955.37061	1237.89893	-454.42136	852.94940	1188.77917	-479.92325	846.16333	1199.92896	-432.63846	777.77142	1597.00806	-617.53540	1361.74854	1664.54480	-630.31195	1137.92151	1675.19128	-621.28094	1025.16418	1675.84229	-614.03125	888.26758	1639.47937	-590.70013	790.83588	1683.69751	-622.55438	787.90155	1671.47766	-606.93317	714.27161	1313.34106	-568.10858	934.81696	1550.51245	-559.12305	947.92285	1369.26318	-726.93951	961.36548	1516.55212	-720.82867	975.14551	1262.57190	-651.22760	635.03937	1280.55249	-671.33313	455.68747	1286.36694	-823.13116	322.23505	1329.74036	-962.20654	168.41920	1370.52893	-1010.00464	174.21349	1356.98242	-892.61176	36.66775	1594.95325	-578.62152	653.10577	1556.29333	-531.35254	479.07846	1559.41272	-544.23096	288.98962	1509.98120	-528.53955	73.61754	1457.97327	-569.25140	40.92978	1492.58521	-384.31055	39.08130	1438.80457	-625.53241	1678.26709												 
74	0.730	1389.00928	-527.88892	1626.48975	1522.29187	-533.31439	1623.73975	1386.33337	-652.61401	1573.85327	1517.68420	-653.32684	1571.19556	1436.75757	-678.14465	1419.27942	1432.95056	-719.08759	1107.52283	1439.81238	-557.40173	1339.63220	1430.49780	-517.43213	1174.57983	1528.16418	-735.45972	1244.97327	1285.73914	-595.92883	1383.43604	1213.63831	-588.03497	1191.08704	1201.44214	-566.36060	1070.16357	1203.90784	-506.91946	954.72955	1238.12122	-452.04678	850.49255	1189.16443	-478.19730	844.70233	1200.03857	-433.50043	774.20386	1597.97144	-606.87244	1363.14294	1665.91943	-618.56146	1139.37805	1676.85913	-608.59424	1026.82947	1677.65112	-601.00409	889.87878	1641.43079	-577.51538	792.39557	1685.97058	-608.94861	789.57294	1673.58044	-593.93903	715.64893	1314.94897	-558.13202	935.76837	1551.92773	-549.19598	948.38831	1370.59863	-717.07416	962.47443	1517.96301	-710.50830	976.27771	1262.96313	-636.55316	634.37598	1280.47192	-652.61310	454.69614	1285.99341	-805.27417	323.49484	1330.02429	-948.56097	174.65662	1371.00256	-996.06476	182.15468	1354.28345	-883.07434	40.52292	1593.61829	-573.98138	652.94781	1557.52356	-526.97009	478.79434	1560.10571	-542.02618	289.01569	1510.02783	-528.75665	73.62231	1458.02637	-569.36475	40.92791	1492.54053	-384.38538	38.99427															 
